Music_JohtoTrainerBattleNight:
	channel_count 3
	channel 1, Music_JohtoTrainerBattleNight_Ch1
	channel 2, Music_JohtoTrainerBattleNight_Ch2
	channel 3, Music_JohtoTrainerBattleNight_Ch3

Music_JohtoTrainerBattleNight_Ch1:
	tempo 104
	volume 7, 7
	duty_cycle 3
	pitch_offset 2
	vibrato 16, 2, 5
	sound_loop 0, Music_JohtoTrainerBattle_Ch1.body

Music_JohtoTrainerBattleNight_Ch2:
	duty_cycle 3
	vibrato 32, 3, 6
	pitch_offset 1
	note_type 12, 12, 2
	octave 4
	note G#, 1
	note G_, 1
	note F#, 1
	note F_, 1
	note G#, 1
	note D_, 1
	note D#, 1
	note E_, 1
	note G#, 1
	note D#, 1
	note D_, 1
	note D#, 1
	note G#, 1
	note D_, 1
	note C#, 1
	note D_, 1
	note G#, 1
	note C#, 1
	note C_, 1
	note C#, 1
	note G#, 1
	octave 3
	note A#, 1
	note B_, 1
	octave 4
	note C_, 1
	note G#, 1
	octave 3
	note B_, 1
	note A#, 1
	note B_, 1
	octave 4
	note G#, 1
	octave 3
	note A#, 1
	note A_, 1
	note A#, 1
	duty_cycle 2
	sound_loop 0, Music_JohtoTrainerBattle_Ch2.body

Music_JohtoTrainerBattleNight_Ch3:
	note_type 12, 1, 1
	sound_loop 0, Music_JohtoTrainerBattle_Ch3.body
